<svg preserveAspectRatio="none" overflow="visible" style="display: block;" width="22" height="24" viewBox="0 0 22 24" fill="none" xmlns="http://www.w3.org/2000/svg">
<g id="globe">
<path id="Vector" d="M20.1674 12C20.1674 17.5233 16.063 22.0008 11 22.0008M20.1674 12C20.1674 6.47671 16.063 1.9992 11 1.9992M20.1674 12H1.8326M11 22.0008C5.93698 22.0008 1.8326 17.5233 1.8326 12M11 22.0008C8.64603 19.3044 7.33304 15.7236 7.33304 12C7.33304 8.27644 8.64603 4.69557 11 1.9992M11 22.0008C13.354 19.3044 14.667 15.7236 14.667 12C14.667 8.27644 13.354 4.69557 11 1.9992M11 1.9992C5.93698 1.9992 1.8326 6.47671 1.8326 12" stroke="#BB9F88" stroke-width="2" stroke-linecap="round"/>
</g>
</svg>
